<svg width="296" height="36" viewBox="0 0 296 36" fill="none" xmlns="http://www.w3.org/2000/svg">
<path d="M0.36 35V0.679998H29.112C32.664 0.679998 35.416 1.576 37.368 3.368C39.352 5.16 40.344 7.88 40.344 11.528C40.344 15.176 39.352 17.896 37.368 19.688C35.416 21.48 32.664 22.376 29.112 22.376H8.04V35H0.36ZM28.2 6.92H8.04V16.088L28.2 16.136C29.608 16.136 30.68 15.784 31.416 15.08C32.184 14.376 32.568 13.192 32.568 11.528C32.568 9.832 32.184 8.648 31.416 7.976C30.68 7.272 29.608 6.92 28.2 6.92ZM55.3976 35.24C51.9096 35.24 49.1576 34.792 47.1416 33.896C45.1256 32.968 43.6856 31.576 42.8216 29.72C41.9576 27.864 41.5256 25.528 41.5256 22.712V0.679998H49.2056V22.712C49.2056 25.144 49.7656 26.808 50.8856 27.704C52.0376 28.568 53.9736 29 56.6936 29H65.9576C68.6776 29 70.5976 28.568 71.7176 27.704C72.8696 26.808 73.4456 25.144 73.4456 22.712V0.679998H81.1256V22.712C81.1256 25.528 80.6936 27.864 79.8296 29.72C78.9656 31.576 77.5256 32.968 75.5096 33.896C73.4936 34.792 70.7416 35.24 67.2536 35.24H55.3976ZM84.2381 35V0.679998H92.0141L116.302 25.352V0.679998H123.982V35H116.206L91.9181 10.28V35H84.2381ZM127.091 35V0.775997H134.771V14.744H146.195L157.475 0.775997H167.027L152.915 17.864L167.027 35H157.475L146.147 20.984H134.771V35H127.091ZM167.273 35V0.679998H173.705L189.593 11.816H189.833L205.721 0.679998H212.153V35H204.473V10.28L193.577 17.576V35H185.897V17.576L174.953 10.28V35H167.273ZM212.402 35L227.858 0.679998H239.714L255.17 35H246.818L243.554 27.752H224.018L220.754 35H212.402ZM226.802 21.512H240.77L234.098 6.68H233.474L226.802 21.512ZM255.416 35V0.679998H284.168C287.72 0.679998 290.472 1.576 292.424 3.368C294.408 5.16 295.4 7.88 295.4 11.528C295.4 15.176 294.408 17.896 292.424 19.688C290.472 21.48 287.72 22.376 284.168 22.376H263.096V35H255.416ZM283.256 6.92H263.096V16.088L283.256 16.136C284.664 16.136 285.736 15.784 286.472 15.08C287.24 14.376 287.624 13.192 287.624 11.528C287.624 9.832 287.24 8.648 286.472 7.976C285.736 7.272 284.664 6.92 283.256 6.92Z" fill="white"/>
</svg>
